<svg width="19" height="23" viewBox="0 0 19 23" fill="none" xmlns="http://www.w3.org/2000/svg">
<g clip-path="url(#clip0_1801_2197)">
<path d="M3.5625 22.1875C2.90937 22.1875 2.35026 21.9549 1.88516 21.4898C1.42005 21.0247 1.1875 20.4656 1.1875 19.8125V4.375H0V2H5.9375V0.8125H13.0625V2H19V4.375H17.8125V19.8125C17.8125 20.4656 17.5799 21.0247 17.1148 21.4898C16.6497 21.9549 16.0906 22.1875 15.4375 22.1875H3.5625ZM15.4375 4.375H3.5625V19.8125H15.4375V4.375ZM5.9375 17.4375H8.3125V6.75H5.9375V17.4375ZM10.6875 17.4375H13.0625V6.75H10.6875V17.4375Z" fill="black"/>
</g>
<defs>
<clipPath id="clip0_1801_2197">
<rect width="19" height="21.375" fill="white" transform="translate(0 0.8125)"/>
</clipPath>
</defs>
</svg>
