<svg width="23" height="24" viewBox="0 0 23 24" fill="none" xmlns="http://www.w3.org/2000/svg">
<g clip-path="url(#clip0_1801_2201)">
<path d="M2.2439 23.028C1.62683 23.028 1.09858 22.8083 0.659146 22.3689C0.219715 21.9295 0 21.4012 0 20.7841V5.07683C0 4.45976 0.219715 3.9315 0.659146 3.49207C1.09858 3.05264 1.62683 2.83293 2.2439 2.83293H12.2573L10.0134 5.07683H2.2439V20.7841H17.9512V12.9866L20.1951 10.7427V20.7841C20.1951 21.4012 19.9754 21.9295 19.536 22.3689C19.0965 22.8083 18.5683 23.028 17.9512 23.028H2.2439ZM14.7817 3.47805L16.3805 5.04878L8.97561 12.4537V14.0524H10.5463L17.9793 6.61951L19.578 8.19024L11.5 16.2963H6.73171V11.528L14.7817 3.47805ZM19.578 8.19024L14.7817 3.47805L17.5866 0.673171C18.0354 0.22439 18.573 0 19.1994 0C19.8258 0 20.3541 0.22439 20.7841 0.673171L22.3549 2.27195C22.785 2.70203 23 3.22561 23 3.84268C23 4.45976 22.785 4.98333 22.3549 5.41341L19.578 8.19024Z" fill="black"/>
</g>
<defs>
<clipPath id="clip0_1801_2201">
<rect width="23" height="23.028" fill="white"/>
</clipPath>
</defs>
</svg>
