<svg width="21" height="25" viewBox="0 0 21 25" fill="none" xmlns="http://www.w3.org/2000/svg">
<g clip-path="url(#clip0_1801_2199)">
<path d="M9.33333 21.1625V13.1709L2.33333 9.11671V17.1084L9.33333 21.1625ZM11.6667 21.1625L18.6667 17.1084V9.11671L11.6667 13.1709V21.1625ZM9.33333 23.8459L1.16667 19.15C0.797222 18.9362 0.510417 18.6542 0.30625 18.3042C0.102083 17.9542 0 17.5653 0 17.1375V7.86254C0 7.43476 0.102083 7.04587 0.30625 6.69587C0.510417 6.34587 0.797222 6.06393 1.16667 5.85004L9.33333 1.15421C9.70278 0.940318 10.0917 0.833374 10.5 0.833374C10.9083 0.833374 11.2972 0.940318 11.6667 1.15421L19.8333 5.85004C20.2028 6.06393 20.4896 6.34587 20.6938 6.69587C20.8979 7.04587 21 7.43476 21 7.86254V17.1375C21 17.5653 20.8979 17.9542 20.6938 18.3042C20.4896 18.6542 20.2028 18.9362 19.8333 19.15L11.6667 23.8459C11.2972 24.0598 10.9083 24.1667 10.5 24.1667C10.0917 24.1667 9.70278 24.0598 9.33333 23.8459ZM15.1667 8.44587L17.4125 7.16254L10.5 3.16671L8.225 4.47921L15.1667 8.44587ZM10.5 11.1584L12.775 9.84587L5.8625 5.85004L3.5875 7.16254L10.5 11.1584Z" fill="black"/>
</g>
<defs>
<clipPath id="clip0_1801_2199">
<rect width="21" height="23.3333" fill="white" transform="translate(0 0.833374)"/>
</clipPath>
</defs>
</svg>
